<svg width="20" height="13" viewBox="0 0 20 13" fill="none" xmlns="http://www.w3.org/2000/svg">
<path fill-rule="evenodd" clip-rule="evenodd" d="M13.6364 5.45455C15.1818 5.45455 16.3637 4.27273 16.3637 2.72727C16.3637 1.18182 15.1818 0 13.6364 0C12.0909 0 10.9091 1.18182 10.9091 2.72727C10.9091 4.27273 12.0909 5.45455 13.6364 5.45455ZM6.36363 5.45455C7.90908 5.45455 9.0909 4.27273 9.0909 2.72727C9.0909 1.18182 7.90908 0 6.36363 0C4.81817 0 3.63635 1.18182 3.63635 2.72727C3.63635 4.27273 4.81817 5.45455 6.36363 5.45455ZM6.36364 7.27273C4.27273 7.27273 0 8.36364 0 10.4545V12.7273H12.7273V10.4545C12.7273 8.36364 8.45455 7.27273 6.36364 7.27273ZM13.6364 7.27273C13.3637 7.27273 13.0909 7.27273 12.7273 7.36364C13.8182 8.09091 14.5455 9.18182 14.5455 10.4545V12.7273H20V10.4545C20 8.36364 15.7273 7.27273 13.6364 7.27273Z" fill="white"/>
</svg>


