<svg width="20" height="20" viewBox="0 0 20 20" fill="none" xmlns="http://www.w3.org/2000/svg">
<path fill-rule="evenodd" clip-rule="evenodd" d="M0 2.22222H2.22222V0C1 0 0 1 0 2.22222ZM0 11.1112H2.22222V8.88898H0V11.1112ZM4.44446 20H6.66668V17.7778H4.44446V20ZM0 6.66671H2.22222V4.44449H0V6.66671ZM11.1112 0H8.88898V2.22222H11.1112V0ZM17.7778 0V2.22222H20C20 1 19 0 17.7778 0ZM2.22222 20V17.7778H0C0 19 1 20 2.22222 20ZM0 15.5555H2.22222V13.3333H0V15.5555ZM6.66668 0H4.44446V2.22222H6.66668V0ZM8.88898 20H11.1112V17.7778H8.88898V20ZM17.7778 11.1112H20V8.88898H17.7778V11.1112ZM17.7778 20C19 20 20 19 20 17.7778H17.7778V20ZM17.7778 6.66671H20V4.44449H17.7778V6.66671ZM17.7778 15.5555H20V13.3333H17.7778V15.5555ZM13.3333 20H15.5555V17.7778H13.3333V20ZM13.3333 2.22222H15.5555V0H13.3333V2.22222ZM4.44446 15.5556H15.5556V4.44449H4.44446V15.5556ZM6.66675 6.66672H13.3334V13.3334H6.66675V6.66672Z" fill="white"/>
</svg>


