<svg width="20" height="20" viewBox="0 0 20 20" fill="none" xmlns="http://www.w3.org/2000/svg">
<path fill-rule="evenodd" clip-rule="evenodd" d="M16.2121 1.81818H12.394C12.0303 0.727273 11.0303 0 9.84851 0C8.66669 0 7.66669 0.727273 7.30305 1.81818H3.48487C2.48487 1.81818 1.66669 2.63636 1.66669 3.63636V18.1818C1.66669 19.1818 2.48487 20 3.48487 20H16.2121C17.2121 20 18.0303 19.1818 18.0303 18.1818V3.63636C18.0303 2.63636 17.2121 1.81818 16.2121 1.81818ZM9.84848 1.81818C10.3939 1.81818 10.7576 2.18181 10.7576 2.72727C10.7576 3.27272 10.3939 3.63636 9.84848 3.63636C9.30303 3.63636 8.93939 3.27272 8.93939 2.72727C8.93939 2.18181 9.30303 1.81818 9.84848 1.81818ZM16.2121 18.1818H3.48486V3.63638H5.30305V6.36366H14.394V3.63638H16.2121V18.1818Z" fill="white"/>
</svg>


