<svg width="21" height="21" viewBox="0 0 21 21" fill="none" xmlns="http://www.w3.org/2000/svg">
<path fill-rule="evenodd" clip-rule="evenodd" d="M17.5 3.64214C13.6109 -0.246944 7.24698 -0.246948 3.3579 3.64214C-0.531188 7.53122 -0.531184 13.8952 3.3579 17.7843C7.24699 21.6733 13.6109 21.6734 17.5 17.7843C21.3891 13.8952 21.3891 7.53123 17.5 3.64214ZM12.6611 7.70281L17.6109 7.70281L17.6109 12.6526L15.8431 10.8848L11.0147 15.7132L9.60046 14.299L14.4289 9.47057L12.6611 7.70281ZM8.19676 13.7236L3.24702 13.7236L3.24702 8.77386L5.01478 10.5416L9.84321 5.7132L11.2574 7.12742L6.429 11.9558L8.19676 13.7236Z" fill="#F5CE0D"/>
</svg>

