<svg width="34" height="34" viewBox="0 0 34 34" fill="none" xmlns="http://www.w3.org/2000/svg">
<path d="M7.18295 5.05198C7.70145 4.77998 8.23312 4.5781 8.77755 4.44678C9.32155 4.31545 9.88382 4.25 10.4639 4.25C11.8069 4.25 12.9132 4.67287 13.7828 5.51862C14.6523 6.3648 15.0875 7.44345 15.0875 8.75628C15.0875 9.54423 14.9371 10.2927 14.6375 11.0024C14.3374 11.7117 13.8006 12.5337 13.0275 13.4666C12.7934 13.7488 12.4576 14.1376 12.0203 14.6332C10.7793 16.0331 10.1588 17.1122 10.1588 17.8708C10.1588 18.0166 10.1737 18.17 10.2047 18.3303C10.2353 18.4905 10.2812 18.6537 10.342 18.8186L9.62457 19.125C9.20722 18.7072 8.894 18.2716 8.68575 17.8198C8.47707 17.3676 8.37337 16.8938 8.37337 16.3978C8.37337 15.9311 8.46177 15.4547 8.64027 14.9685C8.81792 14.4823 9.12605 13.9039 9.56295 13.2332C9.69512 13.0195 9.89912 12.7181 10.1732 12.3288C11.1809 10.8804 11.6845 9.7869 11.6845 9.0474C11.6845 8.47408 11.5014 8.0121 11.135 7.6619C10.7691 7.31212 10.2859 7.13745 9.68535 7.13745C9.28882 7.13745 8.84342 7.22457 8.35 7.39967C7.85615 7.5752 7.26922 7.8472 6.58752 8.21653L7.18295 5.05198Z" fill="white"/>
<path d="M10.8375 29.7505C13.1847 29.7505 15.0875 27.8477 15.0875 25.5005C15.0875 23.1532 13.1847 21.2505 10.8375 21.2505C8.49031 21.2505 6.58752 23.1532 6.58752 25.5005C6.58752 27.8477 8.49031 29.7505 10.8375 29.7505Z" fill="white"/>
<path d="M23.5875 29.7505C25.9347 29.7505 27.8375 27.8477 27.8375 25.5005C27.8375 23.1532 25.9347 21.2505 23.5875 21.2505C21.2403 21.2505 19.3375 23.1532 19.3375 25.5005C19.3375 27.8477 21.2403 29.7505 23.5875 29.7505Z" fill="white"/>
</svg>

