<svg width="20" height="24" viewBox="0 0 20 24" fill="none" xmlns="http://www.w3.org/2000/svg">
<path fill-rule="evenodd" clip-rule="evenodd" d="M17.7778 0H2.22222C1 0 0 1 0 2.22222V17.7778C0 19 1 20 2.22222 20H6.66667L10 23.3333L13.3333 20H17.7778C19 20 20 19 20 17.7778V2.22222C20 1 19 0 17.7778 0ZM11.1111 17.7778H8.88892V15.5555H11.1111V17.7778ZM13.4444 9.22223L12.4444 10.2222C11.5555 11 11.1111 11.6667 11.1111 13.3333H8.88888V12.7778C8.88888 11.5556 9.33332 10.4445 10.2222 9.66667L11.5555 8.22223C12 7.8889 12.2222 7.33334 12.2222 6.66667C12.2222 5.44445 11.2222 4.44445 9.99999 4.44445C8.77776 4.44445 7.77776 5.44445 7.77776 6.66667H5.55554C5.55554 4.22223 7.55554 2.22223 9.99999 2.22223C12.4444 2.22223 14.4444 4.22223 14.4444 6.66667C14.4444 7.66667 14 8.55556 13.4444 9.22223Z" fill="white"/>
</svg>


