<svg width="21" height="21" viewBox="0 0 21 21" fill="none" xmlns="http://www.w3.org/2000/svg">
<path fill-rule="evenodd" clip-rule="evenodd" d="M17.7454 11.2217C17.7454 10.9156 17.8474 10.6096 17.8474 10.2015C17.8474 9.79346 17.8474 9.48742 17.7454 9.18137L19.8877 7.44711C20.0917 7.24308 20.0917 7.03905 19.9897 6.83502L17.9494 3.26449C17.8474 3.16247 17.6434 3.06046 17.3373 3.16247L14.7869 4.18262C14.2768 3.77456 13.6648 3.46852 13.0527 3.16247L12.6446 0.510076C12.7466 0.20403 12.4406 0 12.2365 0H8.15594C7.95191 0 7.64586 0.20403 7.64586 0.408061L7.2378 3.16247C6.62571 3.3665 6.11563 3.77456 5.50354 4.18262L3.05517 3.16247C2.74913 3.06046 2.5451 3.16247 2.34107 3.3665L0.300763 6.93704C0.198748 7.03905 0.300763 7.3451 0.504794 7.54913L2.64711 9.18137C2.64711 9.48742 2.5451 9.79346 2.5451 10.2015C2.5451 10.6096 2.5451 10.9156 2.64711 11.2217L0.504794 12.9559C0.300763 13.16 0.300763 13.364 0.402778 13.568L2.44308 17.1386C2.5451 17.2406 2.74913 17.3426 3.05517 17.2406L5.60556 16.2204C6.11563 16.6285 6.72772 16.9345 7.33981 17.2406L7.74788 19.893C7.74788 20.097 7.95191 20.301 8.25795 20.301H12.3386C12.5426 20.301 12.8486 20.097 12.8486 19.893L13.2567 17.2406C13.8688 16.9345 14.4809 16.6285 14.991 16.2204L17.5413 17.2406C17.7454 17.3426 18.0514 17.2406 18.1534 17.0365L20.1937 13.466C20.2957 13.262 20.2957 12.9559 20.0917 12.8539L17.7454 11.2217ZM10.1963 13.7721C8.25798 13.7721 6.62573 12.1398 6.62573 10.2015C6.62573 8.26324 8.25798 6.631 10.1963 6.631C12.1346 6.631 13.7668 8.26324 13.7668 10.2015C13.7668 12.1398 12.1346 13.7721 10.1963 13.7721Z" fill="white"/>
</svg>

