<svg width="20" height="20" viewBox="0 0 20 20" fill="none" xmlns="http://www.w3.org/2000/svg">
<path fill-rule="evenodd" clip-rule="evenodd" d="M10 2.375C11.5 2.375 12.625 3.5 12.625 5C12.625 6.5 11.5 7.625 10 7.625C8.5 7.625 7.375 6.5 7.375 5C7.375 3.5 8.5 2.375 10 2.375ZM10 13.625C13.75 13.625 17.625 15.5 17.625 16.25V17.625H2.375V16.25C2.375 15.5 6.25 13.625 10 13.625ZM10 0C7.25 0 5 2.25 5 5C5 7.75 7.25 10 10 10C12.75 10 15 7.75 15 5C15 2.25 12.75 0 10 0ZM10 11.25C6.625 11.25 0 12.875 0 16.25V20H20V16.25C20 12.875 13.375 11.25 10 11.25Z" fill="white"/>
</svg>

