<svg width="90" height="30" viewBox="0 0 90 30" fill="none" xmlns="http://www.w3.org/2000/svg">
<rect x="0.5" y="0.5" width="89" height="29" rx="7.5" fill="white" stroke="#6FCF97"/>
<path fill-rule="evenodd" clip-rule="evenodd" d="M10.9 13.1L9.5 14.5L14 19L24 9L22.6 7.6L14 16.2L10.9 13.1ZM23 15C23 19.4 19.4 23 15 23C10.6 23 7 19.4 7 15C7 10.6 10.6 7 15 7C15.8 7 16.5 7.1 17.2 7.3L18.8 5.7C17.6 5.3 16.3 5 15 5C9.5 5 5 9.5 5 15C5 20.5 9.5 25 15 25C20.5 25 25 20.5 25 15H23Z" fill="#6FCF97"/>
<path d="M37.3398 17.833L39.8691 10.0469H41.7695L38.1875 20H36.5127L32.9443 10.0469H34.8379L37.3398 17.833ZM45.6934 20.1367C44.6406 20.1367 43.7861 19.8063 43.1299 19.1455C42.4782 18.4801 42.1523 17.596 42.1523 16.4932V16.2881C42.1523 15.5498 42.2936 14.8913 42.5762 14.3125C42.8633 13.7292 43.2643 13.2757 43.7793 12.9521C44.2943 12.6286 44.8685 12.4668 45.502 12.4668C46.5091 12.4668 47.2861 12.7881 47.833 13.4307C48.3844 14.0732 48.6602 14.9824 48.6602 16.1582V16.8281H43.8271C43.8773 17.4388 44.0801 17.9219 44.4355 18.2773C44.7956 18.6328 45.2467 18.8105 45.7891 18.8105C46.5501 18.8105 47.1699 18.5029 47.6484 17.8877L48.5439 18.7422C48.2477 19.1842 47.8512 19.5283 47.3545 19.7744C46.8623 20.016 46.3086 20.1367 45.6934 20.1367ZM45.4951 13.7998C45.0394 13.7998 44.6702 13.9593 44.3877 14.2783C44.1097 14.5973 43.932 15.0417 43.8545 15.6113H47.0195V15.4883C46.9831 14.9323 46.835 14.513 46.5752 14.2305C46.3154 13.9434 45.9554 13.7998 45.4951 13.7998ZM53.8281 14.1211C53.6094 14.0846 53.3838 14.0664 53.1514 14.0664C52.3903 14.0664 51.8776 14.3581 51.6133 14.9414V20H49.9521V12.6035H51.5381L51.5791 13.4307C51.9801 12.7881 52.5361 12.4668 53.2471 12.4668C53.484 12.4668 53.68 12.4987 53.835 12.5625L53.8281 14.1211ZM56.6445 20H54.9834V12.6035H56.6445V20ZM54.8809 10.6826C54.8809 10.4274 54.9606 10.2155 55.1201 10.0469C55.2842 9.87826 55.5166 9.79395 55.8174 9.79395C56.1182 9.79395 56.3506 9.87826 56.5146 10.0469C56.6787 10.2155 56.7607 10.4274 56.7607 10.6826C56.7607 10.9333 56.6787 11.1429 56.5146 11.3115C56.3506 11.4756 56.1182 11.5576 55.8174 11.5576C55.5166 11.5576 55.2842 11.4756 55.1201 11.3115C54.9606 11.1429 54.8809 10.9333 54.8809 10.6826ZM58.9004 20V13.834H57.7725V12.6035H58.9004V12.0977C58.9049 11.5189 59.028 11.0221 59.2695 10.6074C59.5111 10.1927 59.8529 9.88053 60.2949 9.6709C60.737 9.46126 61.2679 9.35645 61.8877 9.35645C62.2523 9.35645 62.6009 9.39518 62.9336 9.47266C63.2708 9.55013 63.6195 9.64811 63.9795 9.7666L63.7266 11.1406C63.0977 10.9219 62.5234 10.8125 62.0039 10.8125C61.498 10.8125 61.1312 10.9242 60.9033 11.1475C60.6755 11.3662 60.5615 11.6966 60.5615 12.1387V12.6035H62.0176V13.834H60.5615V20H58.9004ZM64.7656 20H63.1045V12.6035H64.7656V20ZM69.8652 20.1367C68.8125 20.1367 67.958 19.8063 67.3018 19.1455C66.6501 18.4801 66.3242 17.596 66.3242 16.4932V16.2881C66.3242 15.5498 66.4655 14.8913 66.748 14.3125C67.0352 13.7292 67.4362 13.2757 67.9512 12.9521C68.4661 12.6286 69.0404 12.4668 69.6738 12.4668C70.681 12.4668 71.458 12.7881 72.0049 13.4307C72.5563 14.0732 72.832 14.9824 72.832 16.1582V16.8281H67.999C68.0492 17.4388 68.252 17.9219 68.6074 18.2773C68.9674 18.6328 69.4186 18.8105 69.9609 18.8105C70.722 18.8105 71.3418 18.5029 71.8203 17.8877L72.7158 18.7422C72.4196 19.1842 72.0231 19.5283 71.5264 19.7744C71.0342 20.016 70.4805 20.1367 69.8652 20.1367ZM69.667 13.7998C69.2113 13.7998 68.8421 13.9593 68.5596 14.2783C68.2816 14.5973 68.1038 15.0417 68.0264 15.6113H71.1914V15.4883C71.1549 14.9323 71.0068 14.513 70.7471 14.2305C70.4873 13.9434 70.1273 13.7998 69.667 13.7998ZM73.8164 16.2471C73.8164 15.1077 74.0807 14.194 74.6094 13.5059C75.138 12.8132 75.8467 12.4668 76.7354 12.4668C77.5192 12.4668 78.1527 12.7402 78.6357 13.2871V9.5H80.2969V20H78.793L78.7109 19.2344C78.2142 19.8359 77.5511 20.1367 76.7217 20.1367C75.8558 20.1367 75.154 19.7881 74.6162 19.0908C74.083 18.3936 73.8164 17.4456 73.8164 16.2471ZM75.4775 16.3906C75.4775 17.1426 75.6211 17.7305 75.9082 18.1543C76.1999 18.5736 76.6123 18.7832 77.1455 18.7832C77.8245 18.7832 78.3213 18.4801 78.6357 17.874V14.7158C78.3304 14.1234 77.8382 13.8271 77.1592 13.8271C76.6214 13.8271 76.2067 14.0413 75.915 14.4697C75.6234 14.8936 75.4775 15.5339 75.4775 16.3906Z" fill="#6FCF97"/>
</svg>

